<mxfile host="app.diagrams.net" modified="2021-01-29T08:13:36.335Z" agent="5.0 (Macintosh; Intel Mac OS X 10_15_6) AppleWebKit/537.36 (KHTML, like Gecko) Chrome/86.0.4240.80 Safari/537.36" etag="SzU8G1M2BYjECTHAR2tb" version="14.2.7" type="github">
  <diagram id="kgpKYQtTHZ0yAKxKKP6v" name="Page-1">
    <mxGraphModel dx="1977" dy="1080" grid="1" gridSize="10" guides="1" tooltips="1" connect="1" arrows="1" fold="1" page="1" pageScale="1" pageWidth="850" pageHeight="1100" math="0" shadow="0">
      <root>
        <mxCell id="0" />
        <mxCell id="1" parent="0" />
        <mxCell id="3nuBFxr9cyL0pnOWT2aG-1" value="shop-cart" style="shape=umlLifeline;perimeter=lifelinePerimeter;container=1;collapsible=0;recursiveResize=0;rounded=0;shadow=0;strokeWidth=1;" parent="1" vertex="1">
          <mxGeometry x="120" y="80" width="100" height="1030" as="geometry" />
        </mxCell>
        <mxCell id="3nuBFxr9cyL0pnOWT2aG-3" value="cart/estimated" style="verticalAlign=bottom;startArrow=oval;endArrow=block;startSize=8;shadow=0;strokeWidth=1;" parent="3nuBFxr9cyL0pnOWT2aG-1" edge="1">
          <mxGeometry relative="1" as="geometry">
            <mxPoint x="-15" y="70" as="sourcePoint" />
            <mxPoint x="45" y="70" as="targetPoint" />
          </mxGeometry>
        </mxCell>
        <mxCell id="YWAVucUWXaYQgddrqx2p-33" style="edgeStyle=orthogonalEdgeStyle;rounded=0;orthogonalLoop=1;jettySize=auto;html=1;dashed=1;" edge="1" parent="1" source="3nuBFxr9cyL0pnOWT2aG-5">
          <mxGeometry relative="1" as="geometry">
            <mxPoint x="391" y="800" as="targetPoint" />
          </mxGeometry>
        </mxCell>
        <mxCell id="3nuBFxr9cyL0pnOWT2aG-5" value="user-center" style="shape=umlLifeline;perimeter=lifelinePerimeter;container=1;collapsible=0;recursiveResize=0;rounded=0;shadow=0;strokeWidth=1;" parent="1" vertex="1">
          <mxGeometry x="341" y="80" width="100" height="300" as="geometry" />
        </mxCell>
        <mxCell id="3nuBFxr9cyL0pnOWT2aG-6" value="5ms" style="points=[];perimeter=orthogonalPerimeter;rounded=0;shadow=0;strokeWidth=1;" parent="3nuBFxr9cyL0pnOWT2aG-5" vertex="1">
          <mxGeometry x="45" y="80" width="10" height="30" as="geometry" />
        </mxCell>
        <mxCell id="3nuBFxr9cyL0pnOWT2aG-8" value="/getByUid" style="verticalAlign=bottom;endArrow=block;entryX=0;entryY=0;shadow=0;strokeWidth=1;" parent="1" target="3nuBFxr9cyL0pnOWT2aG-6" edge="1">
          <mxGeometry relative="1" as="geometry">
            <mxPoint x="175" y="160" as="sourcePoint" />
          </mxGeometry>
        </mxCell>
        <mxCell id="3nuBFxr9cyL0pnOWT2aG-9" value="" style="verticalAlign=bottom;endArrow=block;shadow=0;strokeWidth=1;" parent="1" edge="1">
          <mxGeometry relative="1" as="geometry">
            <mxPoint x="386" y="185" as="sourcePoint" />
            <mxPoint x="168.83333333333348" y="185" as="targetPoint" />
          </mxGeometry>
        </mxCell>
        <mxCell id="YWAVucUWXaYQgddrqx2p-34" style="edgeStyle=orthogonalEdgeStyle;rounded=0;orthogonalLoop=1;jettySize=auto;html=1;dashed=1;" edge="1" parent="1" source="YWAVucUWXaYQgddrqx2p-78">
          <mxGeometry relative="1" as="geometry">
            <mxPoint x="510" y="1247" as="targetPoint" />
          </mxGeometry>
        </mxCell>
        <mxCell id="YWAVucUWXaYQgddrqx2p-1" value="jinjiang" style="shape=umlLifeline;perimeter=lifelinePerimeter;container=1;collapsible=0;recursiveResize=0;rounded=0;shadow=0;strokeWidth=1;" vertex="1" parent="1">
          <mxGeometry x="460" y="80" width="100" height="300" as="geometry" />
        </mxCell>
        <mxCell id="YWAVucUWXaYQgddrqx2p-2" value="24ms" style="points=[];perimeter=orthogonalPerimeter;rounded=0;shadow=0;strokeWidth=1;" vertex="1" parent="YWAVucUWXaYQgddrqx2p-1">
          <mxGeometry x="45" y="130" width="10" height="150" as="geometry" />
        </mxCell>
        <mxCell id="YWAVucUWXaYQgddrqx2p-13" value="redis" style="verticalAlign=bottom;startArrow=oval;endArrow=block;startSize=8;shadow=0;strokeWidth=1;entryX=-0.3;entryY=0.145;entryDx=0;entryDy=0;entryPerimeter=0;" edge="1" parent="YWAVucUWXaYQgddrqx2p-1" target="YWAVucUWXaYQgddrqx2p-12">
          <mxGeometry relative="1" as="geometry">
            <mxPoint x="60" y="135" as="sourcePoint" />
            <mxPoint x="108" y="135" as="targetPoint" />
          </mxGeometry>
        </mxCell>
        <mxCell id="YWAVucUWXaYQgddrqx2p-5" value="/route/good/info/listÂ " style="verticalAlign=bottom;endArrow=block;shadow=0;strokeWidth=1;exitX=0.52;exitY=0.23;exitDx=0;exitDy=0;exitPerimeter=0;" edge="1" parent="1">
          <mxGeometry relative="1" as="geometry">
            <mxPoint x="172" y="212.89999999999998" as="sourcePoint" />
            <mxPoint x="509.5" y="212.89999999999998" as="targetPoint" />
          </mxGeometry>
        </mxCell>
        <mxCell id="YWAVucUWXaYQgddrqx2p-6" value="" style="verticalAlign=bottom;endArrow=block;shadow=0;strokeWidth=1;exitX=0;exitY=1.007;exitDx=0;exitDy=0;exitPerimeter=0;" edge="1" parent="1" source="YWAVucUWXaYQgddrqx2p-2" target="3nuBFxr9cyL0pnOWT2aG-1">
          <mxGeometry relative="1" as="geometry">
            <mxPoint x="505.5" y="300" as="sourcePoint" />
            <mxPoint x="330" y="300" as="targetPoint" />
          </mxGeometry>
        </mxCell>
        <mxCell id="YWAVucUWXaYQgddrqx2p-8" value="mms" style="shape=umlLifeline;perimeter=lifelinePerimeter;container=1;collapsible=0;recursiveResize=0;rounded=0;shadow=0;strokeWidth=1;" vertex="1" parent="1">
          <mxGeometry x="676" y="80" width="100" height="1220" as="geometry" />
        </mxCell>
        <mxCell id="YWAVucUWXaYQgddrqx2p-9" value="" style="points=[];perimeter=orthogonalPerimeter;rounded=0;shadow=0;strokeWidth=1;" vertex="1" parent="YWAVucUWXaYQgddrqx2p-8">
          <mxGeometry x="45" y="120" width="10" height="40" as="geometry" />
        </mxCell>
        <mxCell id="YWAVucUWXaYQgddrqx2p-19" value="" style="points=[];perimeter=orthogonalPerimeter;rounded=0;shadow=0;strokeWidth=1;" vertex="1" parent="YWAVucUWXaYQgddrqx2p-8">
          <mxGeometry x="45" y="240" width="10" height="40" as="geometry" />
        </mxCell>
        <mxCell id="YWAVucUWXaYQgddrqx2p-75" value="" style="points=[];perimeter=orthogonalPerimeter;rounded=0;shadow=0;strokeWidth=1;" vertex="1" parent="YWAVucUWXaYQgddrqx2p-8">
          <mxGeometry x="45" y="900" width="10" height="40" as="geometry" />
        </mxCell>
        <mxCell id="YWAVucUWXaYQgddrqx2p-15" value="/mms/v2/c/goods/list" style="verticalAlign=bottom;endArrow=open;dashed=1;endSize=8;shadow=0;strokeWidth=1;exitX=1.1;exitY=0.145;exitDx=0;exitDy=0;exitPerimeter=0;" edge="1" parent="1" source="YWAVucUWXaYQgddrqx2p-12" target="YWAVucUWXaYQgddrqx2p-8">
          <mxGeometry relative="1" as="geometry">
            <mxPoint x="679.5" y="214.5" as="targetPoint" />
            <mxPoint x="580" y="214.5" as="sourcePoint" />
          </mxGeometry>
        </mxCell>
        <mxCell id="YWAVucUWXaYQgddrqx2p-16" value="" style="verticalAlign=bottom;endArrow=block;shadow=0;strokeWidth=1;" edge="1" parent="1">
          <mxGeometry relative="1" as="geometry">
            <mxPoint x="608" y="305" as="sourcePoint" />
            <mxPoint x="510" y="305" as="targetPoint" />
          </mxGeometry>
        </mxCell>
        <mxCell id="YWAVucUWXaYQgddrqx2p-20" value="//mms/v2/c/goods/saleItems" style="verticalAlign=bottom;endArrow=block;shadow=0;strokeWidth=1;" edge="1" parent="1" target="YWAVucUWXaYQgddrqx2p-8">
          <mxGeometry relative="1" as="geometry">
            <mxPoint x="520" y="330" as="sourcePoint" />
            <mxPoint x="674.75" y="330" as="targetPoint" />
            <Array as="points">
              <mxPoint x="590" y="330" />
            </Array>
          </mxGeometry>
        </mxCell>
        <mxCell id="YWAVucUWXaYQgddrqx2p-21" value="" style="verticalAlign=bottom;endArrow=block;shadow=0;strokeWidth=1;exitX=0.2;exitY=1;exitDx=0;exitDy=0;exitPerimeter=0;" edge="1" parent="1" source="YWAVucUWXaYQgddrqx2p-19" target="YWAVucUWXaYQgddrqx2p-1">
          <mxGeometry relative="1" as="geometry">
            <mxPoint x="670" y="290" as="sourcePoint" />
            <mxPoint x="620" y="290" as="targetPoint" />
            <Array as="points">
              <mxPoint x="550" y="360" />
            </Array>
          </mxGeometry>
        </mxCell>
        <mxCell id="YWAVucUWXaYQgddrqx2p-22" value="price-center" style="shape=umlLifeline;perimeter=lifelinePerimeter;container=1;collapsible=0;recursiveResize=0;rounded=0;shadow=0;strokeWidth=1;" vertex="1" parent="1">
          <mxGeometry x="836" y="80" width="100" height="300" as="geometry" />
        </mxCell>
        <mxCell id="YWAVucUWXaYQgddrqx2p-23" value="" style="points=[];perimeter=orthogonalPerimeter;rounded=0;shadow=0;strokeWidth=1;" vertex="1" parent="YWAVucUWXaYQgddrqx2p-22">
          <mxGeometry x="45" y="160" width="10" height="30" as="geometry" />
        </mxCell>
        <mxCell id="YWAVucUWXaYQgddrqx2p-24" value="/route/activity/query/activityList" style="verticalAlign=bottom;endArrow=block;shadow=0;strokeWidth=1;dashed=1;" edge="1" parent="1" source="YWAVucUWXaYQgddrqx2p-12" target="YWAVucUWXaYQgddrqx2p-22">
          <mxGeometry relative="1" as="geometry">
            <mxPoint x="583" y="250" as="sourcePoint" />
            <mxPoint x="839.5" y="250" as="targetPoint" />
          </mxGeometry>
        </mxCell>
        <mxCell id="YWAVucUWXaYQgddrqx2p-26" value="" style="verticalAlign=bottom;endArrow=open;dashed=1;endSize=8;shadow=0;strokeWidth=1;entryX=1.2;entryY=0.291;entryDx=0;entryDy=0;entryPerimeter=0;" edge="1" parent="1" source="YWAVucUWXaYQgddrqx2p-8" target="YWAVucUWXaYQgddrqx2p-12">
          <mxGeometry relative="1" as="geometry">
            <mxPoint x="580" y="230" as="targetPoint" />
            <mxPoint x="672" y="230" as="sourcePoint" />
            <Array as="points">
              <mxPoint x="650" y="230" />
            </Array>
          </mxGeometry>
        </mxCell>
        <mxCell id="YWAVucUWXaYQgddrqx2p-27" value="" style="verticalAlign=bottom;endArrow=open;dashed=1;endSize=8;shadow=0;strokeWidth=1;entryX=1.2;entryY=0.655;entryDx=0;entryDy=0;entryPerimeter=0;" edge="1" parent="1" source="YWAVucUWXaYQgddrqx2p-22" target="YWAVucUWXaYQgddrqx2p-12">
          <mxGeometry relative="1" as="geometry">
            <mxPoint x="750" y="270" as="targetPoint" />
            <mxPoint x="842" y="270" as="sourcePoint" />
            <Array as="points">
              <mxPoint x="820" y="270" />
            </Array>
          </mxGeometry>
        </mxCell>
        <mxCell id="YWAVucUWXaYQgddrqx2p-28" value="stock-center" style="shape=umlLifeline;perimeter=lifelinePerimeter;container=1;collapsible=0;recursiveResize=0;rounded=0;shadow=0;strokeWidth=1;" vertex="1" parent="1">
          <mxGeometry x="996" y="80" width="100" height="300" as="geometry" />
        </mxCell>
        <mxCell id="YWAVucUWXaYQgddrqx2p-30" value="" style="verticalAlign=bottom;endArrow=open;dashed=1;endSize=8;shadow=0;strokeWidth=1;" edge="1" parent="1" source="YWAVucUWXaYQgddrqx2p-29" target="YWAVucUWXaYQgddrqx2p-28">
          <mxGeometry relative="1" as="geometry">
            <mxPoint x="725.5" y="290" as="targetPoint" />
            <mxPoint x="626" y="290" as="sourcePoint" />
          </mxGeometry>
        </mxCell>
        <mxCell id="YWAVucUWXaYQgddrqx2p-29" value="" style="points=[];perimeter=orthogonalPerimeter;rounded=0;shadow=0;strokeWidth=1;" vertex="1" parent="1">
          <mxGeometry x="1041" y="280" width="10" height="30" as="geometry" />
        </mxCell>
        <mxCell id="YWAVucUWXaYQgddrqx2p-31" value="gateWay" style="verticalAlign=bottom;endArrow=open;dashed=1;endSize=8;shadow=0;strokeWidth=1;exitX=0.9;exitY=0.809;exitDx=0;exitDy=0;exitPerimeter=0;" edge="1" parent="1" source="YWAVucUWXaYQgddrqx2p-12" target="YWAVucUWXaYQgddrqx2p-29">
          <mxGeometry relative="1" as="geometry">
            <mxPoint x="999.5" y="290" as="targetPoint" />
            <mxPoint x="580" y="290" as="sourcePoint" />
          </mxGeometry>
        </mxCell>
        <mxCell id="YWAVucUWXaYQgddrqx2p-32" value="" style="verticalAlign=bottom;endArrow=open;dashed=1;endSize=8;shadow=0;strokeWidth=1;entryX=1.4;entryY=0.991;entryDx=0;entryDy=0;entryPerimeter=0;" edge="1" parent="1" source="YWAVucUWXaYQgddrqx2p-28" target="YWAVucUWXaYQgddrqx2p-12">
          <mxGeometry relative="1" as="geometry">
            <mxPoint x="580" y="309.99999999999994" as="targetPoint" />
            <mxPoint x="840" y="307.95" as="sourcePoint" />
            <Array as="points">
              <mxPoint x="818" y="307.95" />
            </Array>
          </mxGeometry>
        </mxCell>
        <mxCell id="YWAVucUWXaYQgddrqx2p-12" value="" style="points=[];perimeter=orthogonalPerimeter;rounded=0;shadow=0;strokeWidth=1;" vertex="1" parent="1">
          <mxGeometry x="610" y="200" width="10" height="110" as="geometry" />
        </mxCell>
        <mxCell id="YWAVucUWXaYQgddrqx2p-36" value="redis" style="whiteSpace=wrap;html=1;" vertex="1" parent="1">
          <mxGeometry x="580" y="80" width="70" height="40" as="geometry" />
        </mxCell>
        <mxCell id="YWAVucUWXaYQgddrqx2p-37" value="" style="endArrow=none;dashed=1;html=1;dashPattern=1 3;strokeWidth=2;entryX=0.5;entryY=1;entryDx=0;entryDy=0;" edge="1" parent="1" target="YWAVucUWXaYQgddrqx2p-36">
          <mxGeometry width="50" height="50" relative="1" as="geometry">
            <mxPoint x="615" y="920" as="sourcePoint" />
            <mxPoint x="550" y="250" as="targetPoint" />
          </mxGeometry>
        </mxCell>
        <mxCell id="YWAVucUWXaYQgddrqx2p-38" value="shop_cart_activity_" style="verticalAlign=bottom;endArrow=block;shadow=0;strokeWidth=1;" edge="1" parent="1">
          <mxGeometry relative="1" as="geometry">
            <mxPoint x="170" y="425" as="sourcePoint" />
            <mxPoint x="610" y="425" as="targetPoint" />
          </mxGeometry>
        </mxCell>
        <mxCell id="YWAVucUWXaYQgddrqx2p-39" value="" style="curved=1;endArrow=classic;html=1;dashed=1;exitX=0.53;exitY=0.609;exitDx=0;exitDy=0;exitPerimeter=0;entryX=0.51;entryY=0.67;entryDx=0;entryDy=0;entryPerimeter=0;" edge="1" parent="1">
          <mxGeometry width="50" height="50" relative="1" as="geometry">
            <mxPoint x="173" y="436.03999999999996" as="sourcePoint" />
            <mxPoint x="171" y="470.20000000000005" as="targetPoint" />
            <Array as="points">
              <mxPoint x="310" y="465" />
            </Array>
          </mxGeometry>
        </mxCell>
        <mxCell id="YWAVucUWXaYQgddrqx2p-40" value="&lt;div&gt;newOrder&lt;/div&gt;" style="text;html=1;align=center;verticalAlign=middle;resizable=0;points=[];autosize=1;" vertex="1" parent="1">
          <mxGeometry x="185" y="445" width="70" height="20" as="geometry" />
        </mxCell>
        <mxCell id="YWAVucUWXaYQgddrqx2p-41" value="" style="curved=1;endArrow=classic;html=1;dashed=1;exitX=0.53;exitY=0.609;exitDx=0;exitDy=0;exitPerimeter=0;entryX=0.51;entryY=0.67;entryDx=0;entryDy=0;entryPerimeter=0;" edge="1" parent="1">
          <mxGeometry width="50" height="50" relative="1" as="geometry">
            <mxPoint x="168.5" y="489.99999999999994" as="sourcePoint" />
            <mxPoint x="166.5" y="524.1600000000001" as="targetPoint" />
            <Array as="points">
              <mxPoint x="305.5" y="518.96" />
            </Array>
          </mxGeometry>
        </mxCell>
        <mxCell id="YWAVucUWXaYQgddrqx2p-42" value="&lt;div&gt;asPromotionCalcRequest&lt;/div&gt;" style="text;html=1;align=center;verticalAlign=middle;resizable=0;points=[];autosize=1;" vertex="1" parent="1">
          <mxGeometry x="141.5" y="500" width="150" height="20" as="geometry" />
        </mxCell>
        <mxCell id="YWAVucUWXaYQgddrqx2p-46" style="edgeStyle=orthogonalEdgeStyle;rounded=0;orthogonalLoop=1;jettySize=auto;html=1;dashed=1;" edge="1" parent="1" source="YWAVucUWXaYQgddrqx2p-71">
          <mxGeometry relative="1" as="geometry">
            <mxPoint x="1200" y="1231" as="targetPoint" />
          </mxGeometry>
        </mxCell>
        <mxCell id="YWAVucUWXaYQgddrqx2p-43" value="promotion" style="shape=umlLifeline;perimeter=lifelinePerimeter;container=1;collapsible=0;recursiveResize=0;rounded=0;shadow=0;strokeWidth=1;" vertex="1" parent="1">
          <mxGeometry x="1150" y="80" width="100" height="300" as="geometry" />
        </mxCell>
        <mxCell id="YWAVucUWXaYQgddrqx2p-44" value="" style="verticalAlign=bottom;endArrow=open;dashed=1;endSize=8;shadow=0;strokeWidth=1;" edge="1" parent="1" source="YWAVucUWXaYQgddrqx2p-45" target="YWAVucUWXaYQgddrqx2p-43">
          <mxGeometry relative="1" as="geometry">
            <mxPoint x="879.5" y="290" as="targetPoint" />
            <mxPoint x="780" y="290" as="sourcePoint" />
          </mxGeometry>
        </mxCell>
        <mxCell id="YWAVucUWXaYQgddrqx2p-45" value="" style="points=[];perimeter=orthogonalPerimeter;rounded=0;shadow=0;strokeWidth=1;" vertex="1" parent="1">
          <mxGeometry x="1195" y="657" width="10" height="70" as="geometry" />
        </mxCell>
        <mxCell id="YWAVucUWXaYQgddrqx2p-48" value="/prices/getActivityDetails" style="verticalAlign=bottom;endArrow=block;shadow=0;strokeWidth=1;dashed=1;" edge="1" parent="1">
          <mxGeometry relative="1" as="geometry">
            <mxPoint x="170" y="670" as="sourcePoint" />
            <mxPoint x="1200" y="670" as="targetPoint" />
          </mxGeometry>
        </mxCell>
        <mxCell id="YWAVucUWXaYQgddrqx2p-51" style="edgeStyle=orthogonalEdgeStyle;rounded=0;orthogonalLoop=1;jettySize=auto;html=1;dashed=1;exitX=0.5;exitY=1;exitDx=0;exitDy=0;" edge="1" parent="1" source="YWAVucUWXaYQgddrqx2p-57">
          <mxGeometry relative="1" as="geometry">
            <mxPoint x="280" y="820" as="targetPoint" />
            <mxPoint x="295" y="310" as="sourcePoint" />
          </mxGeometry>
        </mxCell>
        <mxCell id="YWAVucUWXaYQgddrqx2p-52" value="" style="endArrow=classic;html=1;" edge="1" parent="1" source="3nuBFxr9cyL0pnOWT2aG-1">
          <mxGeometry width="50" height="50" relative="1" as="geometry">
            <mxPoint x="310" y="430" as="sourcePoint" />
            <mxPoint x="290" y="380" as="targetPoint" />
          </mxGeometry>
        </mxCell>
        <mxCell id="YWAVucUWXaYQgddrqx2p-53" value="" style="verticalAlign=bottom;endArrow=block;shadow=0;strokeWidth=1;" edge="1" parent="1">
          <mxGeometry relative="1" as="geometry">
            <mxPoint x="290" y="400" as="sourcePoint" />
            <mxPoint x="170" y="399.99999999999994" as="targetPoint" />
          </mxGeometry>
        </mxCell>
        <mxCell id="YWAVucUWXaYQgddrqx2p-54" value="" style="shape=cylinder3;whiteSpace=wrap;html=1;boundedLbl=1;backgroundOutline=1;size=15;" vertex="1" parent="1">
          <mxGeometry x="255" y="50" width="50.5" height="70" as="geometry" />
        </mxCell>
        <mxCell id="YWAVucUWXaYQgddrqx2p-55" style="edgeStyle=orthogonalEdgeStyle;rounded=0;orthogonalLoop=1;jettySize=auto;html=1;dashed=1;exitX=0.5;exitY=1;exitDx=0;exitDy=0;" edge="1" parent="1" target="YWAVucUWXaYQgddrqx2p-54">
          <mxGeometry relative="1" as="geometry">
            <mxPoint x="286" y="820" as="targetPoint" />
            <mxPoint x="285.5" y="130" as="sourcePoint" />
          </mxGeometry>
        </mxCell>
        <mxCell id="YWAVucUWXaYQgddrqx2p-57" value="" style="rounded=0;whiteSpace=wrap;html=1;" vertex="1" parent="1">
          <mxGeometry x="275.25" y="370" width="10" height="40" as="geometry" />
        </mxCell>
        <mxCell id="YWAVucUWXaYQgddrqx2p-58" style="edgeStyle=orthogonalEdgeStyle;rounded=0;orthogonalLoop=1;jettySize=auto;html=1;dashed=1;exitX=0.5;exitY=1;exitDx=0;exitDy=0;" edge="1" parent="1" source="YWAVucUWXaYQgddrqx2p-54" target="YWAVucUWXaYQgddrqx2p-57">
          <mxGeometry relative="1" as="geometry">
            <mxPoint x="280" y="820" as="targetPoint" />
            <mxPoint x="280.25" y="120" as="sourcePoint" />
          </mxGeometry>
        </mxCell>
        <mxCell id="YWAVucUWXaYQgddrqx2p-60" value="" style="verticalAlign=bottom;endArrow=block;shadow=0;strokeWidth=1;dashed=1;" edge="1" parent="1">
          <mxGeometry relative="1" as="geometry">
            <mxPoint x="1190" y="730" as="sourcePoint" />
            <mxPoint x="171" y="728" as="targetPoint" />
          </mxGeometry>
        </mxCell>
        <mxCell id="YWAVucUWXaYQgddrqx2p-63" value="" style="curved=1;endArrow=classic;html=1;exitX=0.53;exitY=0.609;exitDx=0;exitDy=0;exitPerimeter=0;entryX=0.51;entryY=0.67;entryDx=0;entryDy=0;entryPerimeter=0;" edge="1" parent="1">
          <mxGeometry width="50" height="50" relative="1" as="geometry">
            <mxPoint x="172" y="760" as="sourcePoint" />
            <mxPoint x="170" y="794.1600000000001" as="targetPoint" />
            <Array as="points">
              <mxPoint x="309" y="788.96" />
            </Array>
          </mxGeometry>
        </mxCell>
        <mxCell id="YWAVucUWXaYQgddrqx2p-66" value="newOrder" style="text;html=1;align=center;verticalAlign=middle;resizable=0;points=[];autosize=1;" vertex="1" parent="1">
          <mxGeometry x="185" y="770" width="70" height="20" as="geometry" />
        </mxCell>
        <mxCell id="YWAVucUWXaYQgddrqx2p-67" value="" style="curved=1;endArrow=classic;html=1;exitX=0.53;exitY=0.609;exitDx=0;exitDy=0;exitPerimeter=0;entryX=0.51;entryY=0.67;entryDx=0;entryDy=0;entryPerimeter=0;" edge="1" parent="1">
          <mxGeometry width="50" height="50" relative="1" as="geometry">
            <mxPoint x="168.5" y="820" as="sourcePoint" />
            <mxPoint x="166.5" y="854.1600000000001" as="targetPoint" />
            <Array as="points">
              <mxPoint x="305.5" y="848.96" />
            </Array>
          </mxGeometry>
        </mxCell>
        <mxCell id="YWAVucUWXaYQgddrqx2p-68" value="&lt;div&gt;asPromotionCalcRequest&lt;/div&gt;" style="text;html=1;align=center;verticalAlign=middle;resizable=0;points=[];autosize=1;" vertex="1" parent="1">
          <mxGeometry x="141.5" y="830" width="150" height="20" as="geometry" />
        </mxCell>
        <mxCell id="YWAVucUWXaYQgddrqx2p-69" value="&lt;span style=&quot;font-size: 11px&quot;&gt;/route/good/info/list&amp;nbsp;&lt;/span&gt;" style="endArrow=classic;html=1;dashed=1;" edge="1" parent="1">
          <mxGeometry width="50" height="50" relative="1" as="geometry">
            <mxPoint x="164.5" y="548" as="sourcePoint" />
            <mxPoint x="505" y="548" as="targetPoint" />
          </mxGeometry>
        </mxCell>
        <mxCell id="YWAVucUWXaYQgddrqx2p-70" value="prices/calculateÂ " style="verticalAlign=bottom;endArrow=block;shadow=0;strokeWidth=1;" edge="1" parent="1">
          <mxGeometry relative="1" as="geometry">
            <mxPoint x="170" y="880" as="sourcePoint" />
            <mxPoint x="1201" y="880" as="targetPoint" />
          </mxGeometry>
        </mxCell>
        <mxCell id="YWAVucUWXaYQgddrqx2p-71" value="" style="points=[];perimeter=orthogonalPerimeter;rounded=0;shadow=0;strokeWidth=1;" vertex="1" parent="1">
          <mxGeometry x="1195" y="880" width="10" height="70" as="geometry" />
        </mxCell>
        <mxCell id="YWAVucUWXaYQgddrqx2p-72" style="edgeStyle=orthogonalEdgeStyle;rounded=0;orthogonalLoop=1;jettySize=auto;html=1;dashed=1;" edge="1" parent="1" target="YWAVucUWXaYQgddrqx2p-71">
          <mxGeometry relative="1" as="geometry">
            <mxPoint x="1200" y="1234" as="targetPoint" />
            <mxPoint x="1200" y="730" as="sourcePoint" />
          </mxGeometry>
        </mxCell>
        <mxCell id="YWAVucUWXaYQgddrqx2p-73" value="" style="verticalAlign=bottom;endArrow=block;shadow=0;strokeWidth=1;exitX=0.2;exitY=1;exitDx=0;exitDy=0;exitPerimeter=0;" edge="1" parent="1">
          <mxGeometry relative="1" as="geometry">
            <mxPoint x="1205" y="950" as="sourcePoint" />
            <mxPoint x="168.83333333333348" y="950" as="targetPoint" />
            <Array as="points">
              <mxPoint x="1032" y="950" />
            </Array>
          </mxGeometry>
        </mxCell>
        <mxCell id="YWAVucUWXaYQgddrqx2p-74" value="mms/v2/c/goods/listÂ " style="verticalAlign=bottom;endArrow=block;shadow=0;strokeWidth=1;dashed=1;" edge="1" parent="1">
          <mxGeometry relative="1" as="geometry">
            <mxPoint x="175" y="980" as="sourcePoint" />
            <mxPoint x="730" y="980" as="targetPoint" />
          </mxGeometry>
        </mxCell>
        <mxCell id="YWAVucUWXaYQgddrqx2p-76" value="" style="verticalAlign=bottom;endArrow=block;shadow=0;strokeWidth=1;dashed=1;" edge="1" parent="1">
          <mxGeometry relative="1" as="geometry">
            <mxPoint x="725.5" y="1020" as="sourcePoint" />
            <mxPoint x="169.5" y="1020" as="targetPoint" />
          </mxGeometry>
        </mxCell>
        <mxCell id="YWAVucUWXaYQgddrqx2p-77" value="&lt;span style=&quot;font-size: 11px&quot;&gt;/route/stock/list&amp;nbsp;&lt;/span&gt;" style="endArrow=classic;html=1;dashed=1;" edge="1" parent="1">
          <mxGeometry width="50" height="50" relative="1" as="geometry">
            <mxPoint x="170" y="1050" as="sourcePoint" />
            <mxPoint x="510.5" y="1050" as="targetPoint" />
          </mxGeometry>
        </mxCell>
        <mxCell id="YWAVucUWXaYQgddrqx2p-78" value="" style="points=[];perimeter=orthogonalPerimeter;rounded=0;shadow=0;strokeWidth=1;" vertex="1" parent="1">
          <mxGeometry x="505" y="1047" width="10" height="40" as="geometry" />
        </mxCell>
        <mxCell id="YWAVucUWXaYQgddrqx2p-79" style="edgeStyle=orthogonalEdgeStyle;rounded=0;orthogonalLoop=1;jettySize=auto;html=1;dashed=1;" edge="1" parent="1" source="YWAVucUWXaYQgddrqx2p-81" target="YWAVucUWXaYQgddrqx2p-78">
          <mxGeometry relative="1" as="geometry">
            <mxPoint x="510" y="1130" as="targetPoint" />
            <mxPoint x="509.5" y="380" as="sourcePoint" />
          </mxGeometry>
        </mxCell>
        <mxCell id="YWAVucUWXaYQgddrqx2p-80" value="" style="verticalAlign=bottom;endArrow=block;shadow=0;strokeWidth=1;exitX=0;exitY=1.007;exitDx=0;exitDy=0;exitPerimeter=0;dashed=1;" edge="1" parent="1">
          <mxGeometry relative="1" as="geometry">
            <mxPoint x="505" y="1087" as="sourcePoint" />
            <mxPoint x="169.5" y="1087" as="targetPoint" />
          </mxGeometry>
        </mxCell>
        <mxCell id="YWAVucUWXaYQgddrqx2p-81" value="24ms" style="points=[];perimeter=orthogonalPerimeter;rounded=0;shadow=0;strokeWidth=1;" vertex="1" parent="1">
          <mxGeometry x="505" y="507" width="10" height="150" as="geometry" />
        </mxCell>
        <mxCell id="YWAVucUWXaYQgddrqx2p-82" style="edgeStyle=orthogonalEdgeStyle;rounded=0;orthogonalLoop=1;jettySize=auto;html=1;dashed=1;" edge="1" parent="1" source="YWAVucUWXaYQgddrqx2p-1" target="YWAVucUWXaYQgddrqx2p-81">
          <mxGeometry relative="1" as="geometry">
            <mxPoint x="510" y="1047" as="targetPoint" />
            <mxPoint x="508.8333333333335" y="380" as="sourcePoint" />
          </mxGeometry>
        </mxCell>
        <mxCell id="YWAVucUWXaYQgddrqx2p-83" value="" style="verticalAlign=bottom;endArrow=block;shadow=0;strokeWidth=1;exitX=0;exitY=1.007;exitDx=0;exitDy=0;exitPerimeter=0;dashed=1;" edge="1" parent="1">
          <mxGeometry relative="1" as="geometry">
            <mxPoint x="506.17" y="640" as="sourcePoint" />
            <mxPoint x="170.00333333333347" y="640" as="targetPoint" />
          </mxGeometry>
        </mxCell>
      </root>
    </mxGraphModel>
  </diagram>
</mxfile>
